<svg xmlns="http://www.w3.org/2000/svg" width="64" height="64" viewBox="0 0 64 64" fill="none">
  <rect width="64" height="64" rx="14" fill="#4f46e5"/>
  <path d="M44.5 19.5C42.5 17.5 39.3 17.5 37.3 19.5L28.5 28.3L24.5 24.3C23.6 23.4 22.2 23.4 21.3 24.3L17.8 27.8C16.9 28.7 16.9 30.1 17.8 31L24 37.2L18.5 42.7C17.9 43.3 17.9 44.3 18.5 45L19 45.5C19.6 46.1 20.6 46.1 21.2 45.5L26.7 40L33 46.2C33.9 47.1 35.3 47.1 36.2 46.2L39.7 42.7C40.6 41.8 40.6 40.4 39.7 39.5L35.7 35.5L44.5 26.7C46.5 24.7 46.5 21.5 44.5 19.5Z" fill="white"/>
  <circle cx="41" cy="23" r="3.5" fill="#4f46e5"/>
</svg>
